<svg width="75" height="25" viewBox="0 0 75 25" fill="none" xmlns="http://www.w3.org/2000/svg">
<path d="M31.25 25C30.0694 25 29.0805 24.6 28.2833 23.8C27.4861 23 27.0861 22.0111 27.0833 20.8333V16.6667H33.3333V18.75H41.6667V14.5833H31.25C30.0694 14.5833 29.0805 14.1833 28.2833 13.3833C27.4861 12.5833 27.0861 11.5944 27.0833 10.4167V4.16666C27.0833 2.98611 27.4833 1.99722 28.2833 1.2C29.0833 0.402778 30.0722 0.00277778 31.25 0H43.75C44.9305 0 45.9208 0.4 46.7208 1.2C47.5208 2 47.9194 2.98889 47.9167 4.16666V8.33333H41.6667V6.25H33.3333V10.4167H43.75C44.9305 10.4167 45.9208 10.8167 46.7208 11.6167C47.5208 12.4167 47.9194 13.4055 47.9167 14.5833V20.8333C47.9167 22.0139 47.5167 23.0042 46.7167 23.8042C45.9167 24.6042 44.9278 25.0028 43.75 25H31.25ZM58.3333 25C57.1528 25 56.1639 24.6 55.3667 23.8C54.5694 23 54.1694 22.0111 54.1667 20.8333V16.6667H60.4166V18.75H68.75V14.5833H58.3333C57.1528 14.5833 56.1639 14.1833 55.3667 13.3833C54.5694 12.5833 54.1694 11.5944 54.1667 10.4167V4.16666C54.1667 2.98611 54.5667 1.99722 55.3667 1.2C56.1667 0.402778 57.1555 0.00277778 58.3333 0H70.8333C72.0139 0 73.0041 0.4 73.8041 1.2C74.6041 2 75.0028 2.98889 75 4.16666V8.33333H68.75V6.25H60.4166V10.4167H70.8333C72.0139 10.4167 73.0041 10.8167 73.8041 11.6167C74.6041 12.4167 75.0028 13.4055 75 14.5833V20.8333C75 22.0139 74.6 23.0042 73.8 23.8042C73 24.6042 72.0111 25.0028 70.8333 25H58.3333ZM4.16667 25C2.98611 25 1.99722 24.6 1.2 23.8C0.402778 23 0.00277778 22.0111 0 20.8333V4.16666C0 2.98611 0.4 1.99722 1.2 1.2C2 0.402778 2.98889 0.00277778 4.16667 0H16.6667C17.8472 0 18.8375 0.4 19.6375 1.2C20.4375 2 20.8361 2.98889 20.8333 4.16666V8.33333H14.5833V6.25H6.25V18.75H14.5833V16.6667H20.8333V20.8333C20.8333 22.0139 20.4333 23.0042 19.6333 23.8042C18.8333 24.6042 17.8444 25.0028 16.6667 25H4.16667Z" fill="black"/>
</svg>
