<svg width="100" height="25" viewBox="0 0 100 25" fill="none" xmlns="http://www.w3.org/2000/svg">
<path d="M0 25V0H6.25V8.33333H14.5833V0H20.8333V25H14.5833V14.5833H6.25V25H0ZM32.2917 25V6.25H25V0H45.8333V6.25H38.5417V25H32.2917ZM50 25V4.16667C50 2.98611 50.4 1.99722 51.2 1.2C52 0.402778 52.9889 0.00277778 54.1667 0H72.9167C74.0972 0 75.0875 0.4 75.8875 1.2C76.6875 2 77.0861 2.98889 77.0833 4.16667V25H70.8333V6.25H66.6667V20.8333H60.4167V6.25H56.25V25H50ZM83.3333 25V0H89.5833V18.75H100V25H83.3333Z" fill="black"/>
</svg>
