<svg width="58" height="27" viewBox="0 0 58 27" fill="none" xmlns="http://www.w3.org/2000/svg">
<path d="M44.5556 1V26H57M32.1111 22.875L35.2222 26M1 22.875C1 23.7038 1.32778 24.4987 1.91122 25.0847C2.49467 25.6708 3.28599 26 4.11111 26H10.3333C11.1585 26 11.9498 25.6708 12.5332 25.0847C13.1167 24.4987 13.4444 23.7038 13.4444 22.875V16.625C13.4444 15.7962 13.1167 15.0013 12.5332 14.4153C11.9498 13.8292 11.1585 13.5 10.3333 13.5H4.11111C3.28599 13.5 2.49467 13.1708 1.91122 12.5847C1.32778 11.9987 1 11.2038 1 10.375V4.125C1 3.2962 1.32778 2.50134 1.91122 1.91529C2.49467 1.32924 3.28599 1 4.11111 1H10.3333C11.1585 1 11.9498 1.32924 12.5332 1.91529C13.1167 2.50134 13.4444 3.2962 13.4444 4.125M29 1C30.6502 1 32.2329 1.65848 33.3998 2.83058C34.5667 4.00269 35.2222 5.5924 35.2222 7.25V19.75C35.2222 21.4076 34.5667 22.9973 33.3998 24.1694C32.2329 25.3415 30.6502 26 29 26C27.3498 26 25.7671 25.3415 24.6002 24.1694C23.4333 22.9973 22.7778 21.4076 22.7778 19.75V7.25C22.7778 5.5924 23.4333 4.00269 24.6002 2.83058C25.7671 1.65848 27.3498 1 29 1Z" stroke="black" stroke-width="2" stroke-linecap="round" stroke-linejoin="round"/>
</svg>
