<svg width="50" height="50" viewBox="0 0 50 50" fill="none" xmlns="http://www.w3.org/2000/svg">
<path d="M20.8482 18.9844L31.4732 25.0223L20.8482 31.0603V18.9844ZM50 5.35714V44.6429C50 47.6004 47.6004 50 44.6429 50H5.35714C2.39955 50 0 47.6004 0 44.6429V5.35714C0 2.39955 2.39955 0 5.35714 0H44.6429C47.6004 0 50 2.39955 50 5.35714ZM45.3125 25.0335C45.3125 25.0335 45.3125 18.3817 44.4643 15.1897C43.9955 13.4263 42.6228 12.0424 40.8705 11.5737C37.7121 10.7143 25 10.7143 25 10.7143C25 10.7143 12.2879 10.7143 9.12946 11.5737C7.37723 12.0424 6.00446 13.4263 5.53571 15.1897C4.6875 18.3705 4.6875 25.0335 4.6875 25.0335C4.6875 25.0335 4.6875 31.6853 5.53571 34.8772C6.00446 36.6406 7.37723 37.9688 9.12946 38.4375C12.2879 39.2857 25 39.2857 25 39.2857C25 39.2857 37.7121 39.2857 40.8705 38.4263C42.6228 37.9576 43.9955 36.6295 44.4643 34.8661C45.3125 31.6853 45.3125 25.0335 45.3125 25.0335Z" fill="#FF0000"/>
</svg>
